<?xml version="1.0" standalone="no"?>
<!DOCTYPE svg PUBLIC "-//W3C//DTD SVG 20010904//EN"
 "http://www.w3.org/TR/2001/REC-SVG-20010904/DTD/svg10.dtd">
<svg version="1.0" xmlns="http://www.w3.org/2000/svg"
 width="500.000000pt" height="500.000000pt" viewBox="0 0 500.000000 500.000000"
 preserveAspectRatio="xMidYMid meet">
<metadata>
Created by potrace 1.11, written by Peter Selinger 2001-2013
</metadata>
<g transform="translate(0.000000,500.000000) scale(0.100000,-0.100000)"
fill="#000000" stroke="none">
<path d="M2240 4869 c-172 -19 -405 -75 -569 -135 -221 -82 -480 -229 -666
-379 -173 -139 -368 -353 -495 -545 -245 -372 -374 -776 -387 -1217 -13 -415
65 -782 242 -1138 363 -733 1061 -1223 1874 -1316 158 -18 505 -7 661 21 324
57 627 177 899 357 164 107 240 170 381 312 357 360 573 779 667 1296 26 145
26 583 0 740 -41 240 -108 456 -208 665 -349 731 -1062 1241 -1867 1335 -135
16 -407 18 -532 4z m635 -58 c246 -42 421 -99 650 -211 681 -333 1159 -977
1280 -1720 154 -956 -288 -1894 -1130 -2393 -356 -212 -751 -317 -1185 -317
-551 0 -1049 178 -1478 530 -436 357 -723 854 -823 1425 -26 154 -36 456 -20
616 92 891 683 1648 1526 1957 188 70 322 102 525 128 155 19 500 12 655 -15z"/>
<path d="M1043 3565 c-159 -43 -244 -143 -262 -307 -4 -40 -4 -143 0 -228 20
-405 10 -472 -73 -510 -24 -11 -55 -20 -70 -20 -27 0 -28 -2 -28 -54 l0 -53
45 -5 c61 -7 93 -31 117 -86 20 -44 20 -56 12 -307 -5 -143 -7 -289 -6 -325 9
-232 139 -343 420 -357 l112 -6 0 52 0 51 -93 0 c-76 0 -101 4 -137 23 -97 48
-116 122 -104 387 5 102 9 241 9 310 0 109 -3 131 -23 171 -28 57 -66 94 -128
124 l-47 23 44 19 c62 28 103 65 130 120 24 47 24 51 19 278 -9 436 -8 464 21
520 38 74 87 98 212 103 l97 4 0 44 0 44 -107 -1 c-60 0 -132 -7 -160 -14z"/>
<path d="M3690 3537 l0 -45 98 -4 c148 -6 206 -47 232 -163 8 -37 8 -127 -1
-346 -10 -263 -10 -301 4 -350 21 -71 64 -121 133 -155 l56 -27 -50 -24 c-69
-32 -117 -89 -138 -160 -15 -51 -16 -82 -8 -253 14 -311 12 -427 -9 -482 -34
-88 -94 -118 -234 -118 l-83 0 0 -50 0 -50 73 0 c168 0 286 37 363 115 44 44
56 65 75 125 21 72 22 81 14 329 -5 141 -8 288 -6 326 4 116 46 172 135 182
l46 6 0 53 c0 52 -1 54 -27 54 -16 0 -47 9 -71 20 -33 15 -47 29 -62 62 -24
54 -26 117 -15 434 8 243 7 252 -14 324 -19 62 -31 81 -79 130 -81 81 -140
102 -304 108 l-128 4 0 -45z"/>
<path d="M3175 3388 c-3 -7 -144 -404 -314 -883 -170 -478 -313 -878 -316
-887 -6 -16 1 -18 73 -18 78 0 80 1 90 28 5 15 145 407 310 872 165 465 305
857 311 873 l11 27 -81 0 c-55 0 -81 -4 -84 -12z"/>
</g>
</svg>
